# xmcd
#
# Track frame offsets:
#	183
#	11900
#	21740
#	31730
#
# Disc length: 612 seconds
#
# Revision: 4
# Processed by: cddbd v1.5.2PL0 Copyright (c) Steve Scherf et al.
# Submitted via: VUPlayer 2.49
#
DISCID=2c026204
DTITLE=Elvis Presley - Live in Las Vegas =August 1969=
DYEAR=1991
DGENRE=Rock
TTITLE0=Are You Lonesome Tonight =the Famous Laughing Version=
TTITLE1=Runaway =Unreleased Version=
TTITLE2=Baby, What You Want Me To Do =Unreleased Version=
TTITLE3=Reconsider Baby =Unreleased Version=
EXTD=
EXTT0=
EXTT1=
EXTT2=
EXTT3=
PLAYORDER=
